<svg xmlns="http://www.w3.org/2000/svg" viewBox="0 0 40 40" fill="none"><defs><linearGradient id="a" x1="8" y1="6" x2="32" y2="34" gradientUnits="userSpaceOnUse"><stop stop-color="#FFE07E"/><stop offset=".55" stop-color="#F07840"/><stop offset="1" stop-color="#C13D36"/></linearGradient></defs><circle cx="20" cy="20" r="17" fill="#D84E38" stroke="#FFF0CC" stroke-width="1.5"/><path d="M20 31c5 0 8-3.5 8-8 0-3-2-5.5-4.7-8.5-.2 3-1.7 4-3 4.5.2-4-1.4-6.7-4.2-9-0.3 4-3 6.5-3 11.2 0 5.7 2.7 9.8 6.9 9.8Z" fill="url(#a)"/><path d="M20 27c2 0 3-1.2 3-3 0-1-.5-2-1.7-3.4-.3 1.8-1.3 2.2-1.8 2.4-.4-.8-.8-1.5-1.3-2.1-.3 1.4-1.1 2.3-1.1 3.9 0 1.3 1 2.2 2.9 2.2Z" fill="#FFF2C6"/></svg>
