<svg xmlns="http://www.w3.org/2000/svg" viewBox="0 0 40 40" fill="none"><defs><linearGradient id="a" x1="9" y1="11" x2="31" y2="31" gradientUnits="userSpaceOnUse"><stop stop-color="#FFDA8C"/><stop offset="1" stop-color="#E29454"/></linearGradient></defs><circle cx="20" cy="20" r="17" fill="#2F8CA3" stroke="#D9F0E6" stroke-width="1.5"/><path d="M13 21v-7a2 2 0 0 1 4 0v5-8a2 2 0 0 1 4 0v8-6a2 2 0 0 1 4 0v7-3a2 2 0 0 1 4 0v5c0 5-3 8-8 8h-1c-3 0-5-1-6-4l-3-4a2 2 0 0 1 2-3Z" fill="url(#a)" stroke="#FFF1CE" stroke-width="1.2" stroke-linejoin="round"/><path d="M10 11 8 9m22 1 2-2" stroke="#68C9AE" stroke-width="1.5" stroke-linecap="round"/></svg>
